#!OML:ASF X:\für Bonn\!DataBase\2005_08_11_Bastian_Final\c3d\Bastian.ASF
:FULLY-SPECIFIED
:DEGREES
80
root -22.4545 17.6477 -0.427449 64.7697 -83.1992 -73.0285
lowerback 7.03695 2.53598 5.1834
upperback 5.32085 3.48645 -2.72467
thorax 2.08515 1.88473 -5.91656
lowerneck -8.26623 -9.10825 -0.885939
upperneck -10.6053 -12.0227 8.96446
head -1.33998 -6.27312 2.79387
rclavicle 2.8625e-014 6.36111e-015
rhumerus 50.8863 -4.7836 -26.3938
rradius 47.354
rwrist -5.57088
rhand -9.40904 -1.3831
rfingers 7.12502
rthumb 16.5527 -30.6971
lclavicle 2.8625e-014 6.36111e-015
lhumerus -23.1927 -13.7395 84.9895
lradius 11.9071
lwrist 10.3093
lhand -9.5462 -5.33662
lfingers 7.12502
lthumb 16.4206 23.9884
rfemur -0.102493 2.29396 26.5329
rtibia 27.4215
rfoot -10.528 -15.2935
rtoes -6.57602
lfemur 1.84223 2.63634 -12.4468
ltibia 22.7061
lfoot -9.52798 -4.23289
ltoes -17.7347
81
root -22.4531 17.6484 -0.43117 63.8478 -83.1606 -72.1121
lowerback 7.07318 2.63748 5.26895
upperback 5.33344 3.62645 -2.83462
thorax 2.11337 1.96066 -6.08774
lowerneck -8.23045 -9.26472 -0.880713
upperneck -10.7347 -12.2228 9.14125
head -1.36698 -6.38178 2.85124
rclavicle -3.73715e-014 2.70347e-014
rhumerus 51.6559 -4.98313 -26.2481
rradius 45.7386
rwrist -5.48791
rhand -9.27579 -1.43799
rfingers 7.12502
rthumb 16.6809 -30.7412
lclavicle -3.73715e-014 2.70347e-014
lhumerus -23.2515 -13.9566 84.8718
lradius 11.871
lwrist 10.2802
lhand -9.43067 -5.2174
lfingers 7.12502
lthumb 16.5318 24.0984
rfemur -0.0946066 2.2155 26.5379
rtibia 27.4214
rfoot -10.5396 -15.3313
rtoes -6.61435
lfemur 1.82148 2.55057 -12.4496
ltibia 22.7065
lfoot -9.51281 -4.2492
ltoes -17.8845
82
root -22.4522 17.6483 -0.434929 62.9938 -83.1093 -71.266
lowerback 7.11287 2.73365 5.35246
upperback 5.33788 3.75983 -2.93393
thorax 2.13017 2.03263 -6.24685
lowerneck -8.20824 -9.41147 -0.858316
upperneck -10.8331 -12.4129 9.29169
head -1.38465 -6.48426 2.89552
rclavicle -4.8901e-014 2.22639e-014
rhumerus 52.4041 -5.15234 -26.161
rradius 44.1144
rwrist -5.28089
rhand -9.1162 -1.4375
rfingers 7.12502
rthumb 16.8346 -30.7278
lclavicle -4.8901e-014 2.22639e-014
lhumerus -23.3274 -14.0249 84.7298
lradius 11.8557
lwrist 10.1239
lhand -9.33426 -5.07209
lfingers 7.12502
lthumb 16.6247 24.2359
rfemur -0.0776286 2.202 26.5688
rtibia 27.4215
rfoot -10.5719 -15.4206
rtoes -6.47518
lfemur 1.80645 2.44143 -12.4383
ltibia 22.7059
lfoot -9.48701 -4.23984
ltoes -17.9212
83
root -22.4506 17.6484 -0.438358 61.9362 -83.0914 -70.2255
lowerback 7.15072 2.83496 5.39909
upperback 5.37102 3.89654 -3.03783
thorax 2.1771 2.10649 -6.38914
lowerneck -8.22414 -9.5705 -0.865209
upperneck -10.9332 -12.6178 9.46057
head -1.39246 -6.59313 2.94771
rclavicle 3.22031e-014 -2.38542e-014
rhumerus 53.1012 -5.33977 -26.043
rradius 42.5407
rwrist -4.99898
rhand -8.8507 -1.42858
rfingers 7.12502
rthumb 17.0901 -30.6969
lclavicle 3.22031e-014 -2.38542e-014
lhumerus -23.3671 -14.1971 84.6246
lradius 11.8829
lwrist 10.0861
lhand -9.22891 -4.90876
lfingers 7.12502
lthumb 16.7261 24.3907
rfemur -0.0591283 2.16503 26.5511
rtibia 27.4242
rfoot -10.5798 -15.5052
rtoes -6.46972
lfemur 1.79933 2.34508 -12.4766
ltibia 22.7022
lfoot -9.4704 -4.24911
ltoes -18.0714
84
root -22.4495 17.6486 -0.442601 61.0746 -83.049 -69.3638
lowerback 7.17353 2.93181 5.45111
upperback 5.38945 4.02795 -3.12121
thorax 2.21558 2.17722 -6.51217
lowerneck -8.22041 -9.71424 -0.90635
upperneck -11.0353 -12.7987 9.63624
head -1.4023 -6.68922 3.0097
rclavicle 3.95581e-014 -4.77083e-015
rhumerus 53.7537 -5.44022 -25.8309
rradius 41.0119
rwrist -4.74255
rhand -8.45357 -1.39029
rfingers 7.12502
rthumb 17.4724 -30.6251
lclavicle 3.95581e-014 -4.77083e-015
lhumerus -23.441 -14.4454 84.5662
lradius 11.9165
lwrist 10.1627
lhand -9.18073 -4.81362
lfingers 7.12502
lthumb 16.7725 24.4819
rfemur -0.0591514 2.10565 26.5617
rtibia 27.4287
rfoot -10.5913 -15.5602
rtoes -6.44753
lfemur 1.77531 2.26251 -12.4775
ltibia 22.6954
lfoot -9.45015 -4.26515
ltoes -18.2209
85
root -22.4483 17.6486 -0.446068 60.0425 -82.9885 -68.3376
lowerback 7.20461 3.02217 5.52076
upperback 5.40798 4.15202 -3.20836
thorax 2.25099 2.2449 -6.64951
lowerneck -8.17744 -9.85736 -0.93541
upperneck -11.175 -12.9767 9.83499
head -1.42993 -6.78696 3.08172
rclavicle 1.19271e-014 -2.70347e-014
rhumerus 54.3334 -5.49165 -25.5656
rradius 39.5331
rwrist -4.53368
rhand -7.98496 -1.33115
rfingers 7.12502
rthumb 17.9233 -30.5253
lclavicle 1.19271e-014 -2.70347e-014
lhumerus -23.5188 -14.7366 84.5142
lradius 11.9918
lwrist 10.3114
lhand -9.13177 -4.73225
lfingers 7.12502
lthumb 16.8196 24.5593
rfemur -0.0487566 2.05518 26.5821
rtibia 27.4362
rfoot -10.6119 -15.6497
rtoes -6.41691
lfemur 1.75999 2.17335 -12.4724
ltibia 22.6859
lfoot -9.43204 -4.28682
ltoes -18.4017
86
root -22.4475 17.6492 -0.449899 59.0386 -82.9603 -67.3544
lowerback 7.25468 3.11416 5.54622
upperback 5.42921 4.27623 -3.29042
thorax 2.27518 2.31067 -6.75749
lowerneck -8.18383 -10.0036 -0.986282
upperneck -11.2622 -13.1609 10.009
head -1.43167 -6.88364 3.14324
rclavicle -7.2954e-014 6.52014e-014
rhumerus 54.8453 -5.44454 -25.1282
rradius 38.1729
rwrist -4.54388
rhand -7.54583 -1.32421
rfingers 7.12502
rthumb 18.3458 -30.4791
lclavicle -7.2954e-014 6.52014e-014
lhumerus -23.6229 -14.8955 84.4429
lradius 12.1075
lwrist 10.332
lhand -9.13917 -4.72793
lfingers 7.12502
lthumb 16.8125 24.5642
rfemur -0.025108 2.02628 26.5734
rtibia 27.4415
rfoot -10.6151 -15.7389
rtoes -6.32885
lfemur 1.75807 2.12886 -12.4914
ltibia 22.6809
lfoot -9.39754 -4.34727
ltoes -18.4875
87
root -22.446 17.6493 -0.453349 58.0442 -82.9113 -66.3653
lowerback 7.28955 3.19912 5.59658
upperback 5.44723 4.39217 -3.37565
thorax 2.30616 2.37352 -6.88197
lowerneck -8.15693 -10.138 -1.00985
upperneck -11.3894 -13.3292 10.181
head -1.45463 -6.97567 3.20458
rclavicle 8.94531e-015 3.18055e-015
rhumerus 55.2774 -5.30646 -24.5504
rradius 36.9191
rwrist -4.81578
rhand -7.1694 -1.38575
rfingers 7.12502
rthumb 18.7079 -30.5061
lclavicle 8.94531e-015 3.18055e-015
lhumerus -23.721 -15.1893 84.4028
lradius 12.2107
lwrist 10.5203
lhand -9.18792 -4.74386
lfingers 7.12502
lthumb 16.7655 24.5523
rfemur -0.017022 1.98003 26.5783
rtibia 27.4482
rfoot -10.6328 -15.8228
rtoes -6.2978
lfemur 1.73826 2.00716 -12.5064
ltibia 22.6735
lfoot -9.37307 -4.35571
ltoes -18.5431
88
root -22.4449 17.6491 -0.457358 57.0311 -82.8522 -65.3722
lowerback 7.34326 3.28016 5.63
upperback 5.46301 4.50274 -3.44312
thorax 2.32084 2.43215 -6.97918
lowerneck -8.13603 -10.2783 -1.06028
upperneck -11.4852 -13.5041 10.3594
head -1.46317 -7.06869 3.26999
rclavicle -1.0138e-014 1.43125e-014
rhumerus 55.6326 -5.09056 -23.8474
rradius 35.7904
rwrist -5.25198
rhand -6.8152 -1.50513
rfingers 7.12502
rthumb 19.0485 -30.5924
lclavicle -1.0138e-014 1.43125e-014
lhumerus -23.8167 -15.3907 84.3518
lradius 12.3153
lwrist 10.6338
lhand -9.2486 -4.75195
lfingers 7.12502
lthumb 16.7071 24.5491
rfemur 0.0101012 1.94801 26.597
rtibia 27.4559
rfoot -10.6517 -15.9438
rtoes -6.27976
lfemur 1.73267 1.96941 -12.4961
ltibia 22.663
lfoot -9.34158 -4.44322
ltoes -18.6799
89
root -22.4441 17.6491 -0.460955 55.9799 -82.8151 -64.3385
lowerback 7.38425 3.3638 5.64674
upperback 5.48579 4.61499 -3.52311
thorax 2.35035 2.49195 -7.07922
lowerneck -8.12323 -10.4022 -1.07301
upperneck -11.5943 -13.6607 10.5068
head -1.48037 -7.15399 3.32031
rclavicle 8.7664e-014 -8.26944e-014
rhumerus 55.9221 -4.85958 -23.1038
rradius 34.7253
rwrist -5.61426
rhand -6.4553 -1.64076
rfingers 7.12502
rthumb 19.3946 -30.6935
lclavicle 8.7664e-014 -8.26944e-014
lhumerus -23.9235 -15.5576 84.2817
lradius 12.4635
lwrist 10.7137
lhand -9.28099 -4.76739
lfingers 7.12502
lthumb 16.6759 24.5363
rfemur 0.0363844 1.90243 26.5813
rtibia 27.4602
rfoot -10.6731 -16.0272
rtoes -6.2474
lfemur 1.72762 1.86645 -12.5324
ltibia 22.6594
lfoot -9.33018 -4.43981
ltoes -18.8721
90
root -22.4428 17.6497 -0.464419 55.0467 -82.7594 -63.3917
lowerback 7.42051 3.44906 5.69266
upperback 5.47731 4.73239 -3.60696
thorax 2.35394 2.55423 -7.20101
lowerneck -8.06564 -10.5405 -1.1146
upperneck -11.6936 -13.8318 10.6963
head -1.49544 -7.24655 3.39076
rclavicle -3.27995e-014 3.49861e-014
rhumerus 56.1673 -4.63106 -22.4327
rradius 33.6946
rwrist -5.81478
rhand -5.969 -1.81591
rfingers 7.12502
rthumb 19.8622 -30.821
lclavicle -3.27995e-014 3.49861e-014
lhumerus -24.059 -15.8241 84.2333
lradius 12.6161
lwrist 10.9351
lhand -9.3324 -4.76104
lfingers 7.12502
lthumb 16.6265 24.5468
rfemur 0.0213382 1.86575 26.5874
rtibia 27.4633
rfoot -10.6801 -16.1197
rtoes -6.23111
lfemur 1.68179 1.79734 -12.5359
ltibia 22.6584
lfoot -9.28682 -4.49774
ltoes -18.794
91
root -22.4418 17.6496 -0.468027 53.8931 -82.7027 -62.2593
lowerback 7.47743 3.5186 5.69538
upperback 5.48397 4.82643 -3.66704
thorax 2.35199 2.60271 -7.27322
lowerneck -7.99703 -10.659 -1.15969
upperneck -11.8161 -13.9764 10.8435
head -1.52426 -7.326 3.45132
rclavicle 7.7526e-015 -2.06736e-014
rhumerus 56.3724 -4.35197 -21.6368
rradius 32.7809
rwrist -6.04588
rhand -5.41417 -2.17134
rfingers 7.12502
rthumb 20.3954 -31.1203
lclavicle 7.7526e-015 -2.06736e-014
lhumerus -24.1883 -15.8204 84.1447
lradius 12.8019
lwrist 10.9645
lhand -9.3383 -4.72386
lfingers 7.12502
lthumb 16.6208 24.5845
rfemur 0.0544823 1.87083 26.5932
rtibia 27.4699
rfoot -10.7086 -16.2739
rtoes -6.16801
lfemur 1.67072 1.78989 -12.5416
ltibia 22.6531
lfoot -9.24658 -4.62594
ltoes -18.8017
